<?xml version="1.0" encoding="utf-8"?>
<!-- Generator: Adobe Illustrator 25.1.0, SVG Export Plug-In . SVG Version: 6.00 Build 0)  -->
<svg version="1.1" id="Layer_1" xmlns="http://www.w3.org/2000/svg" xmlns:xlink="http://www.w3.org/1999/xlink" x="0px" y="0px"
	 viewBox="0 0 263 408" style="enable-background:new 0 0 263 408;" xml:space="preserve">
<style type="text/css">
	.st0{clip-path:url(#SVGID_2_);}
	.st1{fill:#006CFE;}
	.st2{fill:#FFFFFF;}
</style>
<g>
	<defs>
		<rect id="SVGID_1_" y="1" width="261.6" height="405.8"/>
	</defs>
	<clipPath id="SVGID_2_">
		<use xlink:href="#SVGID_1_"  style="overflow:visible;"/>
	</clipPath>
	<g class="st0">
		<path class="st1" d="M118.7,165.8c-8.6-29.1,11.8-59,35.4-78.8c23.6-19.8,52-35.4,68.7-61c-4,16,6.2,33.9-1,48.8
			c-6.7,13.9-24.8,17.8-40.4,20c-12.6,1.8-25.1,3.6-37.7,5.4"/>
		<path class="st1" d="M185.2,153.7c-8-18.2-26.1-30.9-47.2-30.9c-4,0-7.9,0.5-11.6,1.3c1.4-17.5,1.6-35.4-5.4-51.4
			c-6.3-14.6-17.9-26.3-29.7-37.2C80.4,25.4,68.9,15.4,55.1,9.4C38,2,18.7,1.5,0,1c10.1,1,16.9,10.8,19.1,20.4
			c2.3,9.6,1.6,19.7,4.4,29.2c7,23.5,32.6,36,55.6,45.8c15.2,6.5,30.4,12.9,45.6,19.4l0.4,8.7c-15.4,4-28.1,14.9-34.4,29.3
			c-44.8,18.6-76.4,62.9-76.4,114.6c0,51.7,31.1,95.4,75.5,114.2c7.4,14.2,26.2,24.2,48.1,24.2c22,0,40.8-10.1,48.2-24.2
			c44.4-18.8,75.5-62.9,75.5-114.2C261.6,217,230,172.3,185.2,153.7L185.2,153.7z"/>
		<path class="st2" d="M80.9,298.7h1.5c0.4,0,0.6-0.2,0.6-0.6V286c0-0.2,0-0.3-0.1-0.4c-0.1-0.1-0.2-0.1-0.4-0.1h-1.5v-0.7h5.9v0.7
			h-1.5c-0.2,0-0.3,0-0.4,0.1c-0.1,0.1-0.1,0.2-0.1,0.4v12.2c0,0.4,0.2,0.6,0.6,0.6h1.5v0.7h-5.9V298.7z"/>
		<path class="st2" d="M90.2,299c-0.6-0.4-1.1-1-1.4-1.8c-0.3-0.7-0.5-1.6-0.5-2.5c0-0.9,0.2-1.7,0.5-2.5c0.3-0.7,0.8-1.3,1.4-1.8
			c0.6-0.4,1.3-0.7,2.1-0.7c0.6,0,1.2,0.1,1.6,0.4c0.5,0.3,0.8,0.6,1.1,1c0.2,0.4,0.4,0.8,0.4,1.3s-0.1,0.8-0.3,1
			c-0.2,0.2-0.5,0.4-0.8,0.4c-0.3,0-0.5-0.1-0.7-0.3c-0.2-0.2-0.3-0.4-0.3-0.6c0-0.2,0.1-0.5,0.2-0.6c0.1-0.2,0.3-0.3,0.5-0.3
			c0.2-0.1,0.3-0.2,0.3-0.4c0-0.2-0.1-0.4-0.2-0.6c-0.1-0.2-0.4-0.4-0.7-0.5c-0.3-0.2-0.7-0.2-1.1-0.2c-0.9,0-1.4,0.4-1.7,1.1
			c-0.3,0.7-0.5,1.8-0.5,3.3s0.1,2.6,0.5,3.3c0.3,0.7,0.9,1.1,1.8,1.1c0.9,0,1.5-0.3,1.9-0.9c0.5-0.6,0.7-1.3,0.8-2.1h0.5
			c0,0.6-0.2,1.1-0.4,1.6c-0.2,0.5-0.6,1-1.1,1.3c-0.5,0.3-1.1,0.5-1.7,0.5C91.5,299.6,90.8,299.4,90.2,299L90.2,299z"/>
		<path class="st2" d="M97.9,298.3c-0.8-0.9-1.2-2.1-1.2-3.6c0-0.9,0.2-1.7,0.5-2.4c0.3-0.8,0.8-1.4,1.4-1.8c0.6-0.5,1.3-0.7,2-0.7
			c0.8,0,1.5,0.2,2,0.7c0.5,0.5,0.9,1,1.2,1.7c0.2,0.7,0.4,1.4,0.4,2.1c0,0.1,0,0.2-0.1,0.3c-0.1,0-0.3,0.1-0.5,0.1h-5.1
			c0,1.4,0.2,2.5,0.6,3.3c0.4,0.8,1,1.2,1.9,1.2c0.6,0,1.2-0.2,1.8-0.7c0.6-0.5,0.9-1.2,1.1-2.2h0.5c-0.1,1-0.4,1.8-1,2.5
			c-0.6,0.6-1.4,1-2.4,1C99.7,299.6,98.7,299.2,97.9,298.3L97.9,298.3z M102.6,294.2c0-1.1-0.1-2-0.4-2.8c-0.3-0.7-0.8-1.1-1.4-1.1
			c-0.7,0-1.2,0.4-1.6,1.1c-0.4,0.8-0.5,1.7-0.5,2.8H102.6z"/>
		<path class="st2" d="M111.9,299.1c-0.5-0.4-0.8-1-0.8-1.9c0-0.7,0.2-1.2,0.5-1.6c0.4-0.4,0.8-0.7,1.2-0.9c0.5-0.2,1-0.3,1.7-0.4
			l1.9-0.4v-1.7c0-1.3-0.6-1.9-1.9-1.9c-0.5,0-0.9,0.1-1.3,0.4c-0.4,0.2-0.6,0.5-0.6,0.8c0,0.1,0,0.2,0.1,0.3c0,0,0.1,0.1,0.1,0.1
			c0.1,0,0.1,0.1,0.2,0.1c0.2,0.1,0.4,0.2,0.6,0.3c0.1,0.1,0.2,0.3,0.2,0.5c0,0.3-0.1,0.5-0.3,0.6c-0.2,0.1-0.4,0.2-0.6,0.2
			c-0.3,0-0.6-0.1-0.8-0.4c-0.2-0.2-0.4-0.6-0.4-1c0-0.5,0.1-0.9,0.4-1.3c0.3-0.4,0.6-0.6,1.1-0.8c0.4-0.2,0.9-0.3,1.4-0.3
			c0.9,0,1.7,0.2,2.3,0.7c0.7,0.5,1,1.2,1,2.2v5c0,0.7,0.2,1,0.6,1c0.3,0,0.6-0.2,0.7-0.6c0.1-0.4,0.2-0.9,0.2-1.5h0.4
			c0,0.8-0.1,1.5-0.4,2.1c-0.2,0.6-0.7,0.8-1.3,0.8c-0.6,0-1-0.2-1.3-0.5c-0.3-0.4-0.5-0.8-0.5-1.4l-0.1,0c-0.2,0.5-0.5,0.9-1,1.4
			c-0.5,0.4-1,0.6-1.6,0.6C113,299.6,112.4,299.4,111.9,299.1L111.9,299.1z M115.5,298.1c0.4-0.5,0.7-1.1,0.9-1.8v-1.9l-1.8,0.4
			c-0.7,0.1-1.1,0.4-1.4,0.8c-0.3,0.4-0.4,1-0.4,1.7c0,0.6,0.1,1.1,0.4,1.3c0.3,0.2,0.6,0.3,0.9,0.3
			C114.7,298.9,115.2,298.6,115.5,298.1z"/>
		<path class="st2" d="M120.7,298.9h0.9c0.2,0,0.3,0,0.3-0.1c0.1-0.1,0.1-0.2,0.1-0.4V291c0-0.2,0-0.3-0.1-0.3
			c-0.1-0.1-0.2-0.1-0.3-0.1h-0.9V290h2.8v1.7l0.1,0c0.3-0.7,0.7-1.1,1.2-1.5c0.5-0.3,1-0.5,1.5-0.5c1,0,1.7,0.3,2.1,0.9
			c0.4,0.6,0.6,1.3,0.6,2.2v5.5c0,0.2,0,0.3,0.1,0.4c0.1,0.1,0.2,0.1,0.3,0.1h0.9v0.5h-4.1v-0.5h0.9c0.2,0,0.3,0,0.4-0.1
			c0.1-0.1,0.1-0.2,0.1-0.4v-5.9c0-0.6-0.1-1.1-0.4-1.5c-0.2-0.4-0.6-0.6-1.2-0.6c-0.5,0-0.9,0.2-1.3,0.5c-0.4,0.3-0.7,0.8-0.9,1.4
			c-0.2,0.6-0.3,1.2-0.3,1.9v4.3c0,0.2,0,0.3,0.1,0.4c0.1,0.1,0.2,0.1,0.4,0.1h0.9v0.5h-4.1V298.9L120.7,298.9z"/>
		<path class="st2" d="M133.3,299c-0.6-0.4-1-1-1.3-1.8c-0.3-0.7-0.5-1.6-0.5-2.5c0-0.9,0.2-1.7,0.5-2.5c0.3-0.7,0.8-1.3,1.3-1.8
			c0.6-0.4,1.1-0.6,1.8-0.6c0.5,0,1,0.2,1.4,0.5c0.4,0.3,0.7,0.8,0.9,1.3l0.1,0v-5.8c0-0.2,0-0.3-0.1-0.4c-0.1-0.1-0.2-0.1-0.4-0.1
			h-1.5v-0.5h3.4v13.6c0,0.2,0,0.3,0.1,0.4c0.1,0.1,0.2,0.1,0.4,0.1h1.1v0.5h-3v-1.5l-0.1,0c-0.3,0.5-0.6,1-1,1.3
			c-0.4,0.3-0.9,0.5-1.4,0.5C134.5,299.6,133.9,299.4,133.3,299L133.3,299z M136.5,298.6c0.3-0.3,0.6-0.7,0.8-1.2
			c0.2-0.5,0.3-1.1,0.3-1.7v-1.9c0-0.6-0.1-1.2-0.3-1.7c-0.2-0.5-0.5-0.9-0.8-1.2c-0.3-0.3-0.7-0.5-1.1-0.5c-0.7,0-1.2,0.4-1.5,1.1
			c-0.3,0.7-0.5,1.8-0.5,3.2c0,1.4,0.2,2.5,0.5,3.2c0.3,0.7,0.8,1.1,1.5,1.1C135.8,299,136.1,298.9,136.5,298.6L136.5,298.6z"/>
		<path class="st2" d="M147.9,299.1c-0.5-0.4-0.8-1-0.8-1.9c0-0.7,0.2-1.2,0.5-1.6c0.4-0.4,0.8-0.7,1.2-0.9c0.5-0.2,1-0.3,1.7-0.4
			l1.9-0.4v-1.7c0-1.3-0.6-1.9-1.9-1.9c-0.5,0-0.9,0.1-1.3,0.4c-0.4,0.2-0.6,0.5-0.6,0.8c0,0.1,0,0.2,0.1,0.3c0,0,0.1,0.1,0.1,0.1
			c0.1,0,0.1,0.1,0.2,0.1c0.2,0.1,0.4,0.2,0.6,0.3c0.1,0.1,0.2,0.3,0.2,0.5c0,0.3-0.1,0.5-0.3,0.6c-0.2,0.1-0.4,0.2-0.6,0.2
			c-0.3,0-0.6-0.1-0.8-0.4c-0.2-0.2-0.4-0.6-0.4-1c0-0.5,0.1-0.9,0.4-1.3c0.3-0.4,0.6-0.6,1.1-0.8s0.9-0.3,1.4-0.3
			c0.9,0,1.7,0.2,2.3,0.7c0.7,0.5,1,1.2,1,2.2v5c0,0.7,0.2,1,0.6,1c0.3,0,0.6-0.2,0.7-0.6c0.1-0.4,0.2-0.9,0.2-1.5h0.4
			c0,0.8-0.1,1.5-0.4,2.1c-0.2,0.6-0.7,0.8-1.3,0.8c-0.6,0-1-0.2-1.3-0.5c-0.3-0.4-0.5-0.8-0.5-1.4l-0.1,0c-0.2,0.5-0.5,0.9-1,1.4
			c-0.5,0.4-1,0.6-1.6,0.6C149.1,299.6,148.4,299.4,147.9,299.1L147.9,299.1z M151.5,298.1c0.3-0.5,0.7-1.1,0.9-1.8v-1.9l-1.8,0.4
			c-0.7,0.1-1.1,0.4-1.4,0.8c-0.3,0.4-0.4,1-0.4,1.7c0,0.6,0.1,1.1,0.4,1.3c0.3,0.2,0.6,0.3,0.9,0.3
			C150.7,298.9,151.2,298.6,151.5,298.1z"/>
		<path class="st2" d="M162.5,295.6h0.4l0.8,1.6c0.7,1.3,1.7,1.9,2.9,1.9c0.6,0,1.1-0.2,1.4-0.5c0.3-0.3,0.5-0.7,0.5-1.3
			c0-0.3-0.1-0.6-0.4-0.9c-0.2-0.3-0.6-0.5-1-0.6l-2.3-0.9c-0.7-0.3-1.3-0.7-1.7-1.1s-0.6-1-0.6-1.6c0-0.8,0.3-1.5,0.8-1.9
			c0.5-0.4,1.2-0.6,2-0.6c0.4,0,0.8,0.1,1.1,0.2c0.3,0.1,0.6,0.3,0.9,0.5c0.3,0.2,0.5,0.3,0.7,0.3c0.2,0,0.3-0.1,0.3-0.4l0-0.4h0.4
			v3.1h-0.4l-0.3-0.7c-0.3-0.8-0.7-1.3-1.2-1.6c-0.5-0.3-1-0.5-1.5-0.5c-0.5,0-0.9,0.1-1.2,0.4c-0.3,0.3-0.5,0.6-0.5,1.1
			c0,0.4,0.2,0.7,0.5,1c0.3,0.2,0.8,0.5,1.3,0.7l2.2,0.9c0.7,0.3,1.1,0.6,1.5,1c0.3,0.4,0.5,0.9,0.5,1.6c0,0.9-0.3,1.6-0.8,2
			c-0.5,0.4-1.2,0.6-2,0.6c-0.5,0-0.9-0.1-1.2-0.2c-0.3-0.1-0.6-0.3-0.9-0.6c-0.1-0.1-0.2-0.2-0.4-0.2c-0.1-0.1-0.2-0.1-0.3-0.1
			c-0.3,0-0.6,0.2-0.7,0.7l-0.1,0.4h-0.4V295.6z"/>
		<path class="st2" d="M170.3,298.9h1.1c0.2,0,0.3,0,0.3-0.1c0.1-0.1,0.1-0.2,0.1-0.4v-12.7c0-0.2,0-0.3-0.1-0.4
			c-0.1-0.1-0.2-0.1-0.3-0.1h-1.1v-0.5h3v13.6c0,0.2,0,0.3,0.1,0.4c0.1,0.1,0.2,0.1,0.4,0.1h1.1v0.5h-4.5V298.9L170.3,298.9z"/>
		<path class="st2" d="M175.6,298.9h0.9c0.2,0,0.3,0,0.3-0.1c0.1-0.1,0.1-0.2,0.1-0.4V291c0-0.2,0-0.3-0.1-0.3
			c-0.1-0.1-0.2-0.1-0.3-0.1h-0.9V290h2.8v8.4c0,0.2,0,0.3,0.1,0.4c0.1,0.1,0.2,0.1,0.4,0.1h0.9v0.5h-4.1V298.9z M176.8,287.2
			c-0.2-0.2-0.3-0.5-0.3-0.8c0-0.3,0.1-0.6,0.3-0.8c0.2-0.2,0.5-0.3,0.8-0.3c0.3,0,0.6,0.1,0.8,0.3s0.3,0.5,0.3,0.8
			s-0.1,0.6-0.3,0.8c-0.2,0.2-0.5,0.3-0.8,0.3S177,287.4,176.8,287.2z"/>
		<path class="st2" d="M182.9,299c-0.6-0.4-1.1-1-1.4-1.8c-0.3-0.7-0.5-1.6-0.5-2.5c0-0.9,0.2-1.7,0.5-2.5c0.3-0.7,0.8-1.3,1.4-1.8
			c0.6-0.4,1.3-0.7,2.1-0.7c0.6,0,1.2,0.1,1.6,0.4c0.5,0.3,0.8,0.6,1.1,1c0.2,0.4,0.4,0.8,0.4,1.3s-0.1,0.8-0.3,1
			c-0.2,0.2-0.5,0.4-0.8,0.4c-0.3,0-0.5-0.1-0.7-0.3c-0.2-0.2-0.3-0.4-0.3-0.6c0-0.2,0.1-0.5,0.2-0.6c0.1-0.2,0.3-0.3,0.5-0.3
			c0.2-0.1,0.3-0.2,0.3-0.4c0-0.2-0.1-0.4-0.2-0.6c-0.1-0.2-0.4-0.4-0.7-0.5c-0.3-0.2-0.7-0.2-1.1-0.2c-0.9,0-1.4,0.4-1.7,1.1
			c-0.3,0.7-0.5,1.8-0.5,3.3s0.1,2.6,0.5,3.3c0.3,0.7,0.9,1.1,1.8,1.1s1.5-0.3,1.9-0.9c0.5-0.6,0.7-1.3,0.8-2.1h0.5
			c0,0.6-0.2,1.1-0.4,1.6c-0.2,0.5-0.6,1-1.1,1.3c-0.5,0.3-1.1,0.5-1.7,0.5C184.2,299.6,183.5,299.4,182.9,299L182.9,299z"/>
		<path class="st2" d="M190.7,298.3c-0.8-0.9-1.2-2.1-1.2-3.6c0-0.9,0.2-1.7,0.5-2.4c0.3-0.8,0.8-1.4,1.4-1.8c0.6-0.5,1.3-0.7,2-0.7
			c0.8,0,1.5,0.2,2,0.7c0.5,0.5,0.9,1,1.2,1.7c0.2,0.7,0.4,1.4,0.4,2.1c0,0.1,0,0.2-0.1,0.3c-0.1,0-0.3,0.1-0.5,0.1h-5.1
			c0,1.4,0.2,2.5,0.6,3.3c0.4,0.8,1,1.2,1.9,1.2c0.6,0,1.2-0.2,1.8-0.7c0.6-0.5,0.9-1.2,1.1-2.2h0.5c-0.1,1-0.4,1.8-1,2.5
			c-0.6,0.6-1.4,1-2.4,1C192.5,299.6,191.4,299.2,190.7,298.3L190.7,298.3z M195.3,294.2c0-1.1-0.1-2-0.4-2.8
			c-0.3-0.7-0.8-1.1-1.4-1.1c-0.7,0-1.2,0.4-1.6,1.1c-0.4,0.8-0.5,1.7-0.5,2.8H195.3z"/>
		<path class="st2" d="M199.8,292.1c0-0.6-0.2-1.4-0.4-2.4c-0.2-1.3-0.3-2.3-0.3-3c0-0.5,0.1-0.8,0.3-1.1c0.2-0.3,0.5-0.4,0.9-0.4
			c0.4,0,0.7,0.1,0.9,0.4c0.2,0.3,0.4,0.6,0.4,1.1c0,0.7-0.1,1.7-0.4,3c-0.2,1-0.3,1.8-0.4,2.4l-0.3,4.1h-0.5L199.8,292.1
			L199.8,292.1z M199.5,299.2c-0.2-0.2-0.4-0.5-0.4-0.9c0-0.4,0.1-0.7,0.4-0.9c0.2-0.2,0.5-0.4,0.9-0.4c0.4,0,0.7,0.1,0.9,0.4
			c0.2,0.2,0.4,0.5,0.4,0.9c0,0.4-0.1,0.7-0.4,0.9c-0.2,0.2-0.5,0.4-0.9,0.4C200.1,299.6,199.7,299.5,199.5,299.2z"/>
		<path class="st2" d="M60.2,269.2v-29.5h3.7v29l16-0.5v3.2L63,271.9C61.2,272,60.2,270.9,60.2,269.2z"/>
		<path class="st2" d="M90.1,248.7c6.3,0,10.4,4,10.4,10.9v1.4H82.9c0.2,4.2,2.2,7.9,7.8,7.9c3.7,0,6.2-1.8,7-5.2h3.7
			c-0.9,3.5-3.6,8.3-10.7,8.3c-8,0-11.4-5.5-11.4-11.9C79.3,252.8,83.8,248.7,90.1,248.7 M97,258.2c0-3.6-2.4-6.4-6.8-6.4
			s-7.3,2.8-7.3,6.4H97L97,258.2z"/>
		<path class="st2" d="M137.3,257.8v14.1h-3.7v-13.2c0-4.3-0.9-6.4-4.6-6.4c-4.5,0-7.1,4-7.1,9.8v9.9h-3.7v-13.2
			c0-4.3-0.9-6.4-4.6-6.4c-4.5,0-7.1,4-7.1,9.8v9.9h-3.7v-22.4h3.7v3.8l-0.6,2.5h1c0.9-4.1,3.2-6.8,8-6.8c4.1,0,6.2,2.8,6.7,6.8h0.7
			c0.9-4.1,3.2-6.8,8-6.8C135.2,249.1,137.3,252.8,137.3,257.8"/>
		<path class="st2" d="M174.5,257.8v14.1h-3.7v-13.2c0-4.3-0.9-6.4-4.6-6.4c-4.5,0-7.1,4-7.1,9.8v9.9h-3.7v-13.2
			c0-4.3-0.9-6.4-4.6-6.4c-4.5,0-7.1,4-7.1,9.8v9.9H140v-22.4h3.7v3.8l-0.6,2.5h1c0.9-4.1,3.2-6.8,8-6.8c4.1,0,6.2,2.8,6.7,6.8h0.7
			c0.9-4.1,3.2-6.8,8-6.8S174.5,252.8,174.5,257.8"/>
		<path class="st2" d="M188,248.7c7.1,0,11.7,5.1,11.7,11.6c0,6.5-4.6,11.7-11.7,11.7c-7.1,0-11.8-5.1-11.8-11.7
			C176.1,253.7,180.8,248.7,188,248.7z M188,268.8c5.3,0,8.1-3.8,8.1-8.5c0-4.7-2.8-8.5-8.1-8.5c-5.3,0-8.2,3.8-8.2,8.5
			C179.8,264.9,182.6,268.8,188,268.8z"/>
		<path class="st2" d="M204.9,262v9.9h-3.7v-22.4h3.7v3.9l-0.6,2.6h1c0.9-4.1,3.7-6.9,8.6-6.9c4.9,0,8.3,2.9,8.3,9.1v13.7h-3.6
			v-13.2c0-4.7-1.8-6.5-5.7-6.5C208.3,252.3,204.9,256,204.9,262z"/>
	</g>
</g>
<rect x="65.8" y="282.7" class="st1" width="149.8" height="25.3"/>
</svg>
