<svg xmlns="http://www.w3.org/2000/svg" viewBox="0 0 431.7 289.4"
     style="width: 24px;">
    <defs>
        <style>.cls-1 {
            fill: #006ef5;
            }</style>
    </defs>
    <g id="Layer_2" data-name="Layer 2">
        <g id="Capa_1" data-name="Capa 1">
            <path class="cls-1" stroke="#f2f2f2" stroke-width="5"
                  d="M352.8,56.5H23.3A23.26,23.26,0,0,0,0,79.8V266.1a23.26,23.26,0,0,0,23.3,23.3H352.8a23.26,23.26,0,0,0,23.3-23.3V79.8A23.32,23.32,0,0,0,352.8,56.5ZM348.3,223a36.79,36.79,0,0,0-5.8-.5,33,33,0,0,0-33,33,30.78,30.78,0,0,0,.6,6.1H68.7a27.28,27.28,0,0,0,.3-4.1,33,33,0,0,0-33-33,36.81,36.81,0,0,0-8.2,1V124.3a31.24,31.24,0,0,0,8.2,1,33,33,0,0,0,33-33,34.36,34.36,0,0,0-1-8H310.1a30.78,30.78,0,0,0-.6,6.1,33,33,0,0,0,33,33,36.79,36.79,0,0,0,5.8-.5ZM431.7,32.3V200.4a30.15,30.15,0,0,1-1.3,9c-4.3,14.8-26.5,11.1-26.5-4.3V42.7A14.94,14.94,0,0,0,389,27.8H83.2c-15.4,0-19.1-22.2-4.3-26.5a33.75,33.75,0,0,1,9-1.3H399.2A32.27,32.27,0,0,1,431.7,32.3ZM309.8,172.7A19.7,19.7,0,1,1,290.1,153,19.67,19.67,0,0,1,309.8,172.7Zm-206.5,0A19.7,19.7,0,1,1,83.6,153,19.67,19.67,0,0,1,103.3,172.7Zm83.6-71a71,71,0,1,0,71,71A71,71,0,0,0,186.9,101.7Zm0,112.1A41.1,41.1,0,1,1,228,172.7,41.1,41.1,0,0,1,186.9,213.8Z"/>
        </g>
    </g>
</svg>
