<svg width="31" height="20" viewBox="0 0 31 20" fill="none" xmlns="http://www.w3.org/2000/svg">
<path d="M12.049 9.27344H10.4936C10.4652 9.07221 10.4072 8.89347 10.3196 8.73722C10.232 8.5786 10.1196 8.44366 9.98224 8.33239C9.84493 8.22112 9.68632 8.13589 9.50639 8.0767C9.32884 8.01752 9.13589 7.98793 8.92756 7.98793C8.55114 7.98793 8.22325 8.08144 7.94389 8.26847C7.66454 8.45312 7.44792 8.72301 7.29403 9.07812C7.14015 9.43087 7.06321 9.85937 7.06321 10.3636C7.06321 10.8821 7.14015 11.3177 7.29403 11.6705C7.45028 12.0232 7.66809 12.2895 7.94744 12.4695C8.2268 12.6494 8.54995 12.7393 8.9169 12.7393C9.12287 12.7393 9.31345 12.7121 9.48864 12.6577C9.66619 12.6032 9.82363 12.5239 9.96094 12.4197C10.0982 12.3132 10.2119 12.1842 10.3018 12.0327C10.3942 11.8812 10.4581 11.7083 10.4936 11.5142L12.049 11.5213C12.0088 11.8551 11.9081 12.1771 11.7472 12.4872C11.5885 12.795 11.3743 13.0708 11.1044 13.3146C10.8369 13.5561 10.5173 13.7479 10.1456 13.8899C9.77628 14.0296 9.35843 14.0994 8.89205 14.0994C8.24337 14.0994 7.66335 13.9527 7.15199 13.6591C6.64299 13.3655 6.24053 12.9406 5.9446 12.3842C5.65104 11.8279 5.50426 11.1544 5.50426 10.3636C5.50426 9.57055 5.65341 8.89583 5.9517 8.33949C6.25 7.78314 6.65483 7.35937 7.16619 7.06818C7.67756 6.77462 8.25284 6.62784 8.89205 6.62784C9.31345 6.62784 9.70407 6.68703 10.0639 6.8054C10.4261 6.92377 10.7469 7.09659 11.0263 7.32386C11.3056 7.54877 11.5329 7.82457 11.7081 8.15128C11.8857 8.47798 11.9993 8.85204 12.049 9.27344ZM13.1516 14V6.72727H14.6893V9.72798H17.8107V6.72727H19.3448V14H17.8107V10.9957H14.6893V14H13.1516ZM20.6126 14V6.72727H25.4279V7.99503H22.1502V9.72798H25.1083V10.9957H22.1502V14H20.6126Z" fill="#006EF5"/>
<rect x="0.5" y="0.5" width="30" height="19" stroke="#006EF5"/>
</svg>
