<svg width="20" height="22" viewBox="0 0 20 22" fill="none" xmlns="http://www.w3.org/2000/svg">
<path d="M18.6143 21.0928H1.07715" stroke="#006EF5" stroke-miterlimit="10" stroke-linecap="round"/>
<path d="M19.0112 5.8223L7.4969 17.3144C7.46497 17.3463 7.42375 17.3681 7.37926 17.3763L1.34222 18.8683C1.18746 18.8969 1.05235 18.7618 1.08101 18.6076L2.57594 12.5823C2.58413 12.5379 2.60569 12.4968 2.6379 12.4649L14.1522 0.97275C14.2398 0.885304 14.3817 0.885304 14.4693 0.97275L19.0114 5.50603C19.0991 5.59347 19.0991 5.73513 19.0114 5.82257L19.0112 5.8223Z" stroke="#006EF5" stroke-miterlimit="10"/>
<path d="M14.5474 3.14966L5.6084 12.0713" stroke="#006EF5" stroke-miterlimit="10" stroke-linecap="round"/>
<path d="M6.43944 16.0823C5.15331 15.9284 3.98564 14.763 3.83143 13.4794C3.78366 13.0805 3.83907 12.7171 3.97718 12.4104C3.29509 12.7158 2.89195 13.426 2.9984 14.3108C3.15261 15.5944 4.32028 16.7598 5.6064 16.9137C6.49293 17.0197 7.20451 16.6173 7.51075 15.9368C7.20341 16.0744 6.8393 16.13 6.43971 16.0823H6.43944Z" fill="#006EF5"/>
</svg>
