<svg width="266" height="412" viewBox="0 0 266 412" fill="none" xmlns="http://www.w3.org/2000/svg">
<g clip-path="url(#clip0_518_1963)">
<path d="M127.136 122.574C126.559 123.651 126.009 124.741 125.481 125.837C126.071 125.666 126.669 125.495 127.266 125.344L127.136 122.581V122.574Z" fill="white"/>
<path d="M137.388 123.781L146.191 100.748C158.971 98.9315 171.75 97.115 184.537 95.2984C200.4 93.0431 218.748 89.0877 225.588 75.0075C232.929 59.8991 222.566 41.7333 226.59 25.4938C209.636 51.4743 180.719 67.2888 156.739 87.4014C146.04 96.3746 135.987 107.377 128.914 119.442C128.804 121.306 128.674 123.178 128.53 125.042C131.407 124.384 134.366 123.959 137.402 123.788L137.388 123.781Z" fill="white"/>
<path d="M123.022 72.8277C116.608 58.0345 104.784 46.1617 92.8487 35.0565C81.7516 24.7329 70.064 14.5806 56.0141 8.53449C38.62 1.05567 19.0216 0.466141 0 0C10.2456 0.973412 17.14 11.0092 19.4405 20.7501C21.7478 30.4911 21.0405 40.7805 23.8971 50.3843C30.9976 74.2329 57.0441 86.9421 80.4812 96.875C95.9319 103.428 111.39 109.982 126.84 116.528L127.136 122.574C127.699 121.519 128.289 120.47 128.9 119.435C129.855 103.47 129.354 87.422 123.029 72.8277H123.022Z" fill="white"/>
<path d="M266 271.438C266 218.929 233.897 173.946 188.293 155.081C180.204 136.593 161.766 123.706 140.286 123.706C139.311 123.706 138.343 123.733 137.381 123.788L120.729 167.379C116.588 153.306 119.115 139.068 125.474 125.844C110.607 130.225 98.4865 141.028 92.32 155.06C46.7231 173.925 14.613 218.935 14.613 271.445C14.613 273.693 14.6748 275.921 14.7916 278.142H265.822C265.938 275.921 266 273.693 266 271.445V271.438Z" fill="white"/>
<path d="M120.735 167.372L137.388 123.781C134.353 123.945 131.386 124.37 128.516 125.035C128.66 123.171 128.79 121.306 128.9 119.435C128.289 120.477 127.699 121.519 127.136 122.574L127.266 125.337C126.669 125.488 126.071 125.659 125.481 125.831C119.115 139.054 116.595 153.285 120.735 167.365V167.372Z" fill="white"/>
<path d="M91.3448 387.438C98.8779 401.807 117.941 412 140.293 412C162.645 412 181.776 401.779 189.275 387.411C232.441 369.115 263.246 327.368 265.828 278.135H14.7983C17.3803 327.375 48.2131 369.142 91.3516 387.438H91.3448Z" fill="#006CFE"/>
<path d="M82.2322 302.272H83.7292C84.1069 302.272 84.2923 302.087 84.2923 301.71V289.371C84.2923 289.179 84.2442 289.035 84.1549 288.946C84.0657 288.857 83.9215 288.809 83.7292 288.809H82.2322V288.144H88.2683V288.809H86.7713C86.579 288.809 86.4348 288.857 86.3455 288.946C86.2562 289.035 86.2082 289.179 86.2082 289.371V301.71C86.2082 302.087 86.3936 302.272 86.7713 302.272H88.2683V302.937H82.2322V302.272V302.272Z" fill="white"/>
<path d="M91.6948 302.519C91.0768 302.073 90.5961 301.477 90.2596 300.709C89.9163 299.948 89.7515 299.112 89.7515 298.193C89.7515 297.274 89.9231 296.438 90.2734 295.677C90.6236 294.916 91.1043 294.313 91.7223 293.868C92.3403 293.422 93.0408 293.203 93.8305 293.203C94.4691 293.203 95.0253 293.34 95.4923 293.607C95.9661 293.874 96.3232 294.224 96.5773 294.649C96.8245 295.074 96.9549 295.499 96.9549 295.924C96.9549 296.349 96.8451 296.692 96.6253 296.932C96.4056 297.172 96.1309 297.295 95.815 297.295C95.5403 297.295 95.3069 297.206 95.1215 297.028C94.9361 296.849 94.8399 296.63 94.8399 296.383C94.8399 296.137 94.9086 295.924 95.0459 295.76C95.1833 295.595 95.3481 295.485 95.5472 295.43C95.767 295.362 95.8768 295.239 95.8768 295.053C95.8768 294.889 95.8013 294.697 95.6571 294.491C95.5129 294.286 95.2863 294.101 94.9841 293.943C94.6751 293.785 94.2974 293.703 93.8373 293.703C92.9652 293.703 92.3678 294.08 92.0588 294.827C91.7498 295.574 91.5918 296.699 91.5918 298.193C91.5918 299.687 91.7429 300.812 92.0519 301.559C92.3541 302.306 92.9515 302.683 93.8442 302.683C94.7369 302.683 95.3412 302.388 95.8013 301.792C96.2614 301.196 96.5361 300.496 96.6322 299.694H97.1335C97.0923 300.263 96.9481 300.812 96.694 301.346C96.4399 301.881 96.076 302.32 95.5884 302.663C95.1009 303.005 94.5172 303.184 93.8373 303.184C93.0339 303.184 92.3197 302.964 91.7017 302.519H91.6948Z" fill="white"/>
<path d="M99.5988 301.881C98.816 301.01 98.4246 299.797 98.4246 298.248C98.4246 297.364 98.5962 296.534 98.9464 295.766C99.2898 294.999 99.7774 294.382 100.395 293.916C101.013 293.449 101.7 293.223 102.462 293.223C103.307 293.223 104.001 293.449 104.543 293.909C105.086 294.368 105.477 294.944 105.717 295.643C105.958 296.342 106.081 297.062 106.081 297.795C106.081 297.946 106.033 298.049 105.937 298.097C105.841 298.145 105.676 298.172 105.436 298.172H100.251C100.251 299.557 100.45 300.661 100.842 301.477C101.24 302.292 101.886 302.704 102.785 302.704C103.424 302.704 104.021 302.464 104.584 301.977C105.147 301.49 105.504 300.736 105.656 299.715H106.157C106.074 300.723 105.724 301.559 105.106 302.217C104.488 302.875 103.685 303.204 102.703 303.204C101.412 303.204 100.375 302.765 99.5919 301.895L99.5988 301.881ZM104.289 297.665C104.289 296.555 104.145 295.622 103.849 294.862C103.561 294.101 103.08 293.717 102.414 293.717C101.707 293.717 101.171 294.101 100.801 294.868C100.43 295.636 100.251 296.568 100.251 297.665H104.289Z" fill="white"/>
<path d="M113.793 302.649C113.257 302.285 112.99 301.655 112.99 300.736C112.99 300.03 113.168 299.475 113.532 299.07C113.896 298.666 114.315 298.385 114.789 298.207C115.269 298.035 115.846 297.885 116.526 297.761L118.442 297.405V295.636C118.442 294.347 117.796 293.703 116.505 293.703C116.032 293.703 115.606 293.826 115.214 294.066C114.823 294.306 114.631 294.58 114.631 294.889C114.631 295.026 114.651 295.129 114.693 295.197C114.72 295.239 114.768 295.28 114.83 295.321C114.892 295.362 114.953 295.389 115.008 295.403C115.256 295.472 115.448 295.568 115.578 295.698C115.709 295.821 115.778 295.993 115.778 296.219C115.778 296.507 115.688 296.719 115.517 296.843C115.345 296.966 115.125 297.028 114.864 297.028C114.555 297.028 114.281 296.911 114.033 296.671C113.786 296.438 113.656 296.095 113.656 295.657C113.656 295.143 113.8 294.704 114.081 294.327C114.363 293.95 114.734 293.676 115.187 293.484C115.64 293.299 116.1 293.203 116.567 293.203C117.481 293.203 118.277 293.443 118.936 293.922C119.602 294.402 119.932 295.143 119.932 296.157V301.264C119.932 301.956 120.145 302.299 120.578 302.299C120.928 302.299 121.175 302.1 121.326 301.696C121.477 301.292 121.553 300.805 121.553 300.222H121.93C121.93 301.052 121.807 301.751 121.566 302.32C121.326 302.889 120.893 303.17 120.269 303.17C119.644 303.17 119.225 302.992 118.929 302.642C118.627 302.285 118.469 301.799 118.442 301.175L118.339 301.134C118.133 301.621 117.796 302.08 117.329 302.519C116.862 302.957 116.32 303.17 115.695 303.17C114.96 303.17 114.322 302.992 113.793 302.628V302.649ZM117.494 301.703C117.851 301.209 118.16 300.585 118.442 299.825V297.85L116.629 298.248C115.963 298.385 115.482 298.659 115.18 299.07C114.878 299.482 114.734 300.058 114.734 300.805C114.734 301.442 114.864 301.874 115.132 302.1C115.393 302.327 115.695 302.443 116.025 302.443C116.65 302.443 117.137 302.196 117.494 301.703V301.703Z" fill="white"/>
<path d="M122.706 302.436H123.578C123.743 302.436 123.86 302.402 123.929 302.333C123.997 302.265 124.032 302.148 124.032 301.977V294.416C124.032 294.251 123.997 294.135 123.929 294.066C123.86 293.998 123.743 293.964 123.578 293.964H122.706V293.463H125.535V295.17L125.618 295.191C125.934 294.526 126.332 294.032 126.806 293.703C127.28 293.381 127.795 293.216 128.365 293.216C129.374 293.216 130.095 293.532 130.521 294.149C130.947 294.772 131.153 295.52 131.153 296.39V301.977C131.153 302.142 131.187 302.265 131.256 302.333C131.324 302.402 131.441 302.436 131.606 302.436H132.478V302.937H128.317V302.436H129.189C129.354 302.436 129.47 302.402 129.546 302.333C129.614 302.265 129.649 302.148 129.649 301.977V295.993C129.649 295.383 129.525 294.862 129.285 294.437C129.045 294.005 128.633 293.792 128.049 293.792C127.561 293.792 127.129 293.964 126.751 294.299C126.366 294.642 126.071 295.101 125.858 295.691C125.645 296.281 125.535 296.932 125.535 297.652V301.97C125.535 302.135 125.57 302.258 125.639 302.327C125.707 302.395 125.824 302.429 125.996 302.429H126.868V302.93H122.706V302.429V302.436Z" fill="white"/>
<path d="M135.596 302.532C135.033 302.094 134.586 301.497 134.257 300.736C133.927 299.975 133.755 299.132 133.755 298.2C133.755 297.268 133.92 296.424 134.257 295.664C134.593 294.903 135.04 294.306 135.596 293.868C136.159 293.429 136.763 293.216 137.415 293.216C137.958 293.216 138.439 293.395 138.871 293.744C139.304 294.094 139.62 294.526 139.826 295.019L139.908 294.999V289.096C139.908 288.932 139.874 288.815 139.805 288.74C139.737 288.671 139.62 288.637 139.448 288.637H137.951V288.137H141.405V301.97C141.405 302.135 141.44 302.258 141.508 302.327C141.577 302.395 141.694 302.429 141.865 302.429H142.95V302.93H139.915V301.394L139.833 301.374C139.572 301.929 139.235 302.368 138.823 302.69C138.411 303.012 137.944 303.177 137.422 303.177C136.77 303.177 136.166 302.957 135.603 302.525L135.596 302.532ZM138.789 302.148C139.132 301.847 139.407 301.422 139.613 300.894C139.819 300.366 139.915 299.783 139.915 299.16V297.247C139.915 296.623 139.812 296.047 139.613 295.513C139.414 294.978 139.139 294.56 138.789 294.258C138.439 293.957 138.061 293.799 137.642 293.799C136.962 293.799 136.447 294.183 136.104 294.944C135.754 295.705 135.582 296.795 135.582 298.207C135.582 299.619 135.754 300.709 136.104 301.47C136.447 302.231 136.962 302.615 137.642 302.615C138.061 302.615 138.439 302.464 138.789 302.155V302.148Z" fill="white"/>
<path d="M150.415 302.649C149.879 302.285 149.611 301.655 149.611 300.736C149.611 300.03 149.79 299.475 150.154 299.07C150.511 298.666 150.936 298.385 151.41 298.207C151.891 298.035 152.468 297.885 153.148 297.761L155.063 297.405V295.636C155.063 294.347 154.418 293.703 153.127 293.703C152.653 293.703 152.227 293.826 151.836 294.066C151.445 294.306 151.252 294.58 151.252 294.889C151.252 295.026 151.273 295.129 151.314 295.197C151.342 295.239 151.39 295.28 151.451 295.321C151.513 295.362 151.575 295.389 151.63 295.403C151.877 295.472 152.069 295.568 152.2 295.698C152.33 295.821 152.399 295.993 152.399 296.219C152.399 296.507 152.31 296.719 152.138 296.843C151.966 296.966 151.747 297.028 151.486 297.028C151.184 297.028 150.902 296.911 150.655 296.671C150.408 296.438 150.277 296.095 150.277 295.657C150.277 295.143 150.421 294.704 150.703 294.327C150.984 293.95 151.355 293.676 151.809 293.484C152.262 293.292 152.722 293.203 153.196 293.203C154.109 293.203 154.899 293.443 155.565 293.922C156.231 294.402 156.56 295.143 156.56 296.157V301.264C156.56 301.956 156.773 302.299 157.206 302.299C157.549 302.299 157.803 302.1 157.954 301.696C158.106 301.292 158.181 300.805 158.181 300.222H158.559C158.559 301.052 158.435 301.751 158.195 302.32C157.954 302.889 157.522 303.17 156.897 303.17C156.272 303.17 155.853 302.992 155.558 302.642C155.263 302.285 155.098 301.799 155.07 301.175L154.967 301.134C154.761 301.621 154.425 302.08 153.958 302.519C153.491 302.957 152.948 303.17 152.324 303.17C151.589 303.17 150.957 302.992 150.421 302.628L150.415 302.649ZM154.116 301.703C154.466 301.209 154.782 300.585 155.063 299.825V297.85L153.251 298.248C152.584 298.385 152.104 298.659 151.802 299.07C151.5 299.482 151.355 300.058 151.355 300.805C151.355 301.442 151.486 301.874 151.754 302.1C152.015 302.327 152.317 302.443 152.646 302.443C153.271 302.443 153.759 302.196 154.116 301.703V301.703Z" fill="white"/>
<path d="M165.22 299.07H165.597L166.367 300.709C167.115 302.025 168.083 302.683 169.278 302.683C169.917 302.683 170.391 302.525 170.706 302.217C171.022 301.908 171.173 301.477 171.173 300.942C171.173 300.627 171.05 300.339 170.809 300.078C170.569 299.818 170.246 299.619 169.841 299.468L167.472 298.515C166.724 298.214 166.133 297.843 165.7 297.412C165.268 296.98 165.055 296.438 165.055 295.773C165.055 294.93 165.316 294.293 165.845 293.861C166.373 293.429 167.039 293.216 167.843 293.216C168.248 293.216 168.626 293.285 168.976 293.415C169.326 293.545 169.621 293.703 169.862 293.881C170.164 294.101 170.397 294.21 170.549 294.21C170.727 294.21 170.837 294.087 170.885 293.833L170.926 293.415H171.304V296.575H170.926L170.638 295.849C170.315 295.06 169.896 294.505 169.381 294.19C168.859 293.874 168.344 293.71 167.829 293.71C167.314 293.71 166.895 293.84 166.559 294.094C166.229 294.354 166.058 294.704 166.058 295.163C166.058 295.568 166.222 295.897 166.545 296.15C166.868 296.404 167.321 296.651 167.884 296.891L170.13 297.823C170.796 298.097 171.297 298.433 171.627 298.831C171.956 299.228 172.128 299.777 172.128 300.483C172.128 301.408 171.867 302.094 171.338 302.525C170.809 302.964 170.116 303.177 169.258 303.177C168.743 303.177 168.33 303.108 168.008 302.971C167.685 302.834 167.376 302.649 167.074 302.409C166.95 302.313 166.827 302.231 166.696 302.162C166.573 302.094 166.463 302.059 166.367 302.059C166.037 302.059 165.803 302.292 165.68 302.765L165.597 303.184H165.22V299.07V299.07Z" fill="white"/>
<path d="M173.186 302.436H174.271C174.435 302.436 174.552 302.402 174.621 302.333C174.689 302.265 174.724 302.148 174.724 301.977V289.096C174.724 288.932 174.689 288.815 174.621 288.74C174.552 288.671 174.435 288.637 174.271 288.637H173.186V288.137H176.221V301.97C176.221 302.135 176.255 302.258 176.324 302.327C176.392 302.395 176.509 302.429 176.681 302.429H177.766V302.93H173.186V302.429V302.436Z" fill="white"/>
<path d="M178.617 302.436H179.49C179.654 302.436 179.771 302.402 179.84 302.333C179.908 302.265 179.943 302.148 179.943 301.977V294.416C179.943 294.251 179.908 294.135 179.84 294.066C179.771 293.998 179.654 293.964 179.49 293.964H178.617V293.463H181.447V301.977C181.447 302.142 181.481 302.265 181.55 302.333C181.618 302.402 181.735 302.436 181.907 302.436H182.779V302.937H178.617V302.436V302.436ZM179.805 290.577C179.599 290.371 179.496 290.111 179.496 289.809C179.496 289.508 179.599 289.234 179.805 289.028C180.011 288.829 180.272 288.726 180.575 288.726C180.877 288.726 181.151 288.829 181.357 289.028C181.563 289.227 181.66 289.487 181.66 289.809C181.66 290.132 181.557 290.371 181.357 290.577C181.158 290.783 180.897 290.892 180.575 290.892C180.252 290.892 180.011 290.79 179.805 290.577Z" fill="white"/>
<path d="M185.992 302.519C185.374 302.073 184.894 301.477 184.557 300.709C184.214 299.948 184.049 299.112 184.049 298.193C184.049 297.274 184.221 296.438 184.571 295.677C184.914 294.916 185.402 294.313 186.02 293.868C186.638 293.422 187.338 293.203 188.135 293.203C188.774 293.203 189.33 293.34 189.797 293.607C190.271 293.874 190.628 294.224 190.882 294.649C191.136 295.074 191.259 295.499 191.259 295.924C191.259 296.349 191.15 296.692 190.923 296.932C190.703 297.172 190.429 297.295 190.113 297.295C189.838 297.295 189.604 297.206 189.419 297.028C189.234 296.849 189.138 296.63 189.138 296.383C189.138 296.137 189.206 295.924 189.344 295.76C189.481 295.595 189.646 295.485 189.845 295.43C190.065 295.362 190.181 295.239 190.181 295.053C190.181 294.889 190.106 294.697 189.962 294.491C189.817 294.286 189.591 294.101 189.289 293.943C188.986 293.785 188.602 293.703 188.142 293.703C187.27 293.703 186.672 294.08 186.363 294.827C186.054 295.574 185.896 296.699 185.896 298.193C185.896 299.687 186.047 300.812 186.356 301.559C186.659 302.306 187.256 302.683 188.149 302.683C189.041 302.683 189.646 302.388 190.106 301.792C190.566 301.196 190.841 300.496 190.937 299.694H191.438C191.397 300.263 191.253 300.812 190.998 301.346C190.751 301.881 190.38 302.32 189.893 302.663C189.405 303.005 188.822 303.184 188.142 303.184C187.338 303.184 186.624 302.964 186.006 302.519H185.992Z" fill="white"/>
<path d="M193.903 301.881C193.12 301.01 192.729 299.797 192.729 298.248C192.729 297.364 192.901 296.534 193.251 295.766C193.594 294.999 194.082 294.382 194.7 293.916C195.318 293.449 196.005 293.223 196.767 293.223C197.611 293.223 198.305 293.449 198.848 293.909C199.39 294.368 199.781 294.944 200.022 295.643C200.262 296.342 200.386 297.062 200.386 297.795C200.386 297.946 200.338 298.049 200.242 298.097C200.145 298.145 199.981 298.172 199.74 298.172H194.562C194.562 299.557 194.762 300.661 195.153 301.477C195.544 302.292 196.197 302.704 197.096 302.704C197.735 302.704 198.332 302.464 198.896 301.977C199.459 301.49 199.816 300.736 199.967 299.715H200.468C200.386 300.723 200.035 301.559 199.417 302.217C198.799 302.875 197.996 303.204 197.014 303.204C195.723 303.204 194.686 302.765 193.903 301.895V301.881ZM198.593 297.665C198.593 296.555 198.449 295.622 198.154 294.862C197.866 294.101 197.385 293.717 196.719 293.717C196.011 293.717 195.476 294.101 195.105 294.868C194.734 295.636 194.556 296.568 194.556 297.665H198.593Z" fill="white"/>
<path d="M203.236 295.54C203.194 294.944 203.078 294.128 202.879 293.086C202.645 291.784 202.528 290.762 202.528 290.008C202.528 289.549 202.645 289.186 202.879 288.918C203.112 288.651 203.428 288.514 203.812 288.514C204.197 288.514 204.513 288.651 204.746 288.918C204.98 289.186 205.103 289.549 205.103 290.008C205.103 290.755 204.987 291.784 204.746 293.086C204.554 294.121 204.437 294.944 204.389 295.54L204.053 299.694H203.552L203.215 295.54H203.236ZM202.892 302.82C202.652 302.58 202.528 302.272 202.528 301.895C202.528 301.518 202.652 301.216 202.892 300.969C203.133 300.729 203.442 300.606 203.819 300.606C204.197 300.606 204.499 300.729 204.746 300.969C204.994 301.209 205.11 301.518 205.11 301.895C205.11 302.272 204.987 302.58 204.746 302.82C204.506 303.06 204.197 303.184 203.819 303.184C203.442 303.184 203.133 303.06 202.892 302.82Z" fill="white"/>
<path d="M61.2673 272.336V242.393H65.0236V271.877L81.2778 271.417V274.619L64.0622 275.078C62.2768 275.126 61.2673 274.07 61.2673 272.336Z" fill="#006CFE"/>
<path d="M91.6744 251.449C98.0882 251.449 102.298 255.514 102.298 262.513V263.973H84.2992C84.5258 268.271 86.5859 271.973 92.2238 271.973C95.98 271.973 98.5002 270.142 99.3242 266.674H103.08C102.208 270.19 99.4616 275.085 92.2306 275.085C84.0795 275.085 80.646 269.505 80.646 262.972C80.646 255.658 85.2263 251.456 91.6813 251.456M98.6444 261.149C98.6444 257.488 96.2203 254.609 91.6813 254.609C87.1422 254.609 84.3061 257.488 84.3061 261.149H98.6375H98.6444Z" fill="#006CFE"/>
<path d="M139.661 260.772V275.078H135.905V261.642C135.905 257.255 134.943 255.102 131.235 255.102C126.703 255.102 123.997 259.126 123.997 265.07V275.078H120.241V261.642C120.241 257.255 119.28 255.102 115.571 255.102C111.039 255.102 108.334 259.126 108.334 265.07V275.078H104.577V252.36H108.334V256.247L107.736 258.804H108.787C109.7 254.691 112.083 251.901 116.938 251.901C121.058 251.901 123.256 254.732 123.764 258.804H124.45C125.364 254.691 127.747 251.901 132.602 251.901C137.457 251.901 139.654 255.692 139.654 260.772" fill="#006CFE"/>
<path d="M177.498 260.772V275.078H173.742V261.642C173.742 257.255 172.78 255.102 169.072 255.102C164.54 255.102 161.834 259.126 161.834 265.07V275.078H158.078V261.642C158.078 257.255 157.117 255.102 153.409 255.102C148.876 255.102 146.171 259.126 146.171 265.07V275.078H142.415V252.36H146.171V256.247L145.573 258.804H146.624C147.537 254.691 149.92 251.901 154.775 251.901C158.895 251.901 161.093 254.732 161.601 258.804H162.288C163.201 254.691 165.584 251.901 170.439 251.901C175.294 251.901 177.491 255.692 177.491 260.772" fill="#006CFE"/>
<path d="M191.136 251.449C198.374 251.449 203.085 256.659 203.085 263.239C203.085 269.82 198.367 275.078 191.136 275.078C183.905 275.078 179.091 269.868 179.091 263.239C179.091 256.611 183.85 251.449 191.136 251.449ZM191.136 271.884C196.492 271.884 199.376 267.997 199.376 263.246C199.376 258.496 196.492 254.65 191.136 254.65C185.78 254.65 182.848 258.537 182.848 263.246C182.848 267.956 185.732 271.884 191.136 271.884Z" fill="#006CFE"/>
<path d="M208.4 265.022V275.078H204.643V252.36H208.4V256.288L207.802 258.893H208.853C209.766 254.78 212.65 251.901 217.601 251.901C222.552 251.901 226.075 254.869 226.075 261.183V275.078H222.367V261.683C222.367 256.933 220.492 255.102 216.599 255.102C211.792 255.102 208.4 258.893 208.4 265.022" fill="#006CFE"/>
</g>
<defs>
<clipPath id="clip0_518_1963">
<rect width="266" height="412" fill="white"/>
</clipPath>
</defs>
</svg>
