<svg width="128" height="203" viewBox="0 0 128 203" fill="none" xmlns="http://www.w3.org/2000/svg">
    <path opacity="0.2" d="M90.7885 77.1004C86.9483 67.9839 78.0455 61.5583 67.6032 61.4485C67.132 61.4441 66.6607 61.4543 66.19 61.4792L70.5902 50.2105C76.8165 49.3821 83.0385 48.5575 89.2648 47.7291C96.9924 46.7013 105.936 44.8541 109.333 37.9786C112.978 30.5963 108.032 21.6256 110.069 13.6721C101.692 26.3433 87.547 33.9585 75.7826 43.7097C70.5302 48.0621 65.5876 53.415 62.0851 59.3048C62.6302 51.4679 62.4697 43.5861 59.464 36.3867C56.4226 29.0913 50.7299 23.2003 44.9796 17.6893C39.6364 12.5674 34.005 7.51708 27.2024 4.48253C18.7772 0.714584 9.24938 0.328915 0 0C4.98049 0.52802 8.28017 5.49153 9.35206 10.2876C10.4233 15.0831 10.0263 20.1319 11.3695 24.8599C14.7019 36.6071 27.3054 42.9766 38.6541 47.9752C46.1355 51.2697 53.617 54.5679 61.0985 57.8624L61.2111 60.8434C60.9275 61.3643 60.6551 61.8912 60.394 62.424C53.1363 64.4997 47.1888 69.7429 44.1156 76.6015C21.8454 85.6337 6.0001 107.563 5.73314 133.344C5.46649 159.124 20.6357 181.069 42.4625 190.689C46.0525 197.779 55.2729 202.884 66.1424 202.998C77.0119 203.112 86.369 198.19 90.0884 191.177C112.126 182.019 127.732 160.223 127.997 134.629C128.261 109.034 112.88 86.6028 90.7969 77.1044L90.7885 77.1004Z" fill="#C5E0FF"/>
</svg>