<svg width="24" height="24" viewBox="0 0 24 24" fill="none" xmlns="http://www.w3.org/2000/svg">
<path d="M19.6 20.9999L13.3 14.6999C12.8 15.0999 12.225 15.4166 11.575 15.6499C10.925 15.8833 10.2333 15.9999 9.5 15.9999C7.68333 15.9999 6.146 15.3706 4.888 14.1119C3.63 12.8533 3.00067 11.3159 3 9.49994C3 7.68327 3.62933 6.14594 4.888 4.88794C6.14667 3.62994 7.684 3.00061 9.5 2.99994C11.3167 2.99994 12.8543 3.62927 14.113 4.88794C15.3717 6.14661 16.0007 7.68394 16 9.49994C16 10.2333 15.8833 10.9249 15.65 11.5749C15.4167 12.2249 15.1 12.7999 14.7 13.2999L21 19.5999L19.6 20.9999ZM9.5 13.9999C10.75 13.9999 11.8127 13.5626 12.688 12.6879C13.5633 11.8133 14.0007 10.7506 14 9.49994C14 8.24994 13.5627 7.18761 12.688 6.31294C11.8133 5.43827 10.7507 5.00061 9.5 4.99994C8.25 4.99994 7.18767 5.43761 6.313 6.31294C5.43833 7.18827 5.00067 8.25061 5 9.49994C5 10.7499 5.43767 11.8126 6.313 12.6879C7.18833 13.5633 8.25067 14.0006 9.5 13.9999Z" fill="white"/>
</svg>
