<svg width="26" height="23" viewBox="0 0 26 23" fill="none" xmlns="http://www.w3.org/2000/svg">
<g clip-path="url(#clip0_1100_6899)">
<path d="M24.7261 23H1.2731C0.571313 23 0 22.4192 0 21.7058V1.29421C0 0.580787 0.571313 0 1.2731 0H24.7261C25.4287 0 25.9992 0.580787 25.9992 1.29421V21.705C25.9992 22.4192 25.4279 22.9992 24.7261 22.9992V23ZM1.2731 1.01494C1.12156 1.01494 0.997569 1.14016 0.997569 1.29503V21.7058C0.997569 21.8598 1.12075 21.9859 1.2731 21.9859H24.7261C24.8776 21.9859 25.0016 21.8607 25.0016 21.7058V1.29421C25.0016 1.14016 24.8784 1.01411 24.7261 1.01411H1.2731V1.01494Z" fill="#E2E2E2"/>
<path d="M18.894 9.10807C20.1802 9.10807 21.223 8.04805 21.223 6.74044C21.223 5.43283 20.1802 4.3728 18.894 4.3728C17.6077 4.3728 16.5649 5.43283 16.5649 6.74044C16.5649 8.04805 17.6077 9.10807 18.894 9.10807Z" fill="#E2E2E2"/>
<path d="M2.68555 16.7431V20.0285H23.3144V9.88159L17.5154 14.9546H15.6142L8.76983 6.30542L2.68555 16.7431Z" fill="#E2E2E2"/>
</g>
<defs>
<clipPath id="clip0_1100_6899">
<rect width="26" height="23" fill="white"/>
</clipPath>
</defs>
</svg>
