<svg width="21" height="20" viewBox="0 0 21 20" fill="none" xmlns="http://www.w3.org/2000/svg">
<path d="M14.8749 1H6.12515C5.50375 1 5 1.51105 5 2.14146V3.85854C5 4.48895 5.50375 5 6.12515 5H14.8749C15.4963 5 16 4.48895 16 3.85854V2.14146C16 1.51105 15.4963 1 14.8749 1Z" fill="white" stroke="#006EF5" stroke-width="1.5" stroke-miterlimit="10"/>
<path d="M18.817 5H2.183C1.52965 5 1 5.46723 1 6.04358V13.9564C1 14.5328 1.52965 15 2.183 15H18.817C19.4704 15 20 14.5328 20 13.9564V6.04358C20 5.46723 19.4704 5 18.817 5Z" fill="white" stroke="#006EF5" stroke-width="1.5" stroke-miterlimit="10"/>
<path d="M14.8749 13H6.12515C5.50375 13 5 13.4861 5 14.0858V17.9142C5 18.5139 5.50375 19 6.12515 19H14.8749C15.4963 19 16 18.5139 16 17.9142V14.0858C16 13.4861 15.4963 13 14.8749 13Z" fill="white" stroke="#006EF5" stroke-width="1.5" stroke-miterlimit="10"/>
</svg>
