<svg width="17" height="17" viewBox="0 0 17 17" fill="none" xmlns="http://www.w3.org/2000/svg">
<path d="M11.6318 9.84194L9.84212 11.6316L14.3161 17C15.2106 17 17 15.2106 17 14.3161L11.6318 9.84194ZM5.81591 10.2894C3.04681 10.2894 1.34228 8.58486 1.34228 5.81581C1.34228 3.04675 3.04681 1.34226 5.81591 1.34226C8.58502 1.34226 10.2895 3.04675 10.2895 5.81581C10.2895 8.58486 8.5847 10.2894 5.81591 10.2894ZM5.81591 0C2.30553 0 0 2.30549 0 5.81581C0 9.32612 2.30553 11.6316 5.81591 11.6316C9.3263 11.6316 11.6318 9.32612 11.6318 5.81581C11.6318 2.30549 9.32598 0 5.81591 0Z" fill="#006EF5"/>
</svg>
