<svg width="263" height="408" viewBox="0 0 263 408" fill="none" xmlns="http://www.w3.org/2000/svg">
<g clip-path="url(#clip0_518_2049)">
<path d="M119.374 165.747C110.772 136.455 131.256 106.463 154.958 86.5528C178.667 66.6423 207.258 50.9813 224.021 25.2463C220.043 41.3281 230.288 59.3176 223.03 74.2793C216.268 88.2228 198.133 92.133 182.442 94.3732C169.807 96.1721 157.171 97.971 144.529 99.77" fill="#006CFE"/>
<path d="M186.169 153.569C178.171 135.26 159.941 122.498 138.704 122.498C134.698 122.498 130.801 122.953 127.06 123.815C128.424 106.192 128.621 88.2568 121.635 72.1206C115.293 57.4711 103.602 45.7135 91.8015 34.7162C80.8296 24.4928 69.2738 14.4391 55.3824 8.45163C38.1844 1.04542 18.8071 0.461615 0 0C10.13 0.963961 16.9467 10.9023 19.2212 20.5487C21.5025 30.1951 20.8032 40.3845 23.6276 49.8952C30.648 73.5122 56.4008 86.098 79.5735 95.9345C94.85 102.424 110.133 108.914 125.41 115.397L125.831 124.12C110.323 128.098 97.6269 139.096 91.2787 153.541C46.1961 172.223 14.4482 216.796 14.4482 268.796C14.4482 320.795 45.7412 364.737 90.3146 383.67C97.7627 397.899 116.611 407.993 138.711 407.993C160.81 407.993 179.726 397.872 187.14 383.643C231.741 364.71 263.007 320.415 263.007 268.796C263.007 217.176 231.266 172.25 186.176 153.569H186.169Z" fill="#006CFE"/>
<path d="M81.3049 299.337H82.7851C83.1585 299.337 83.3418 299.154 83.3418 298.78V286.561C83.3418 286.371 83.2943 286.228 83.206 286.14C83.1177 286.052 82.9752 286.004 82.7851 286.004H81.3049V285.346H87.2729V286.004H85.7928C85.6027 286.004 85.4601 286.052 85.3719 286.14C85.2836 286.228 85.2361 286.371 85.2361 286.561V298.78C85.2361 299.154 85.4194 299.337 85.7928 299.337H87.2729V299.995H81.3049V299.337Z" fill="white"/>
<path d="M90.6609 299.582C90.0499 299.14 89.5746 298.55 89.2419 297.789C88.9025 297.036 88.7395 296.208 88.7395 295.298C88.7395 294.388 88.9092 293.56 89.2555 292.807C89.6018 292.053 90.0771 291.456 90.6881 291.014C91.2992 290.573 91.9917 290.356 92.7725 290.356C93.4039 290.356 93.9539 290.492 94.4156 290.757C94.884 291.021 95.2371 291.367 95.4883 291.788C95.7327 292.209 95.8617 292.63 95.8617 293.051C95.8617 293.472 95.7531 293.811 95.5358 294.049C95.3186 294.287 95.047 294.409 94.7347 294.409C94.4631 294.409 94.2323 294.32 94.0489 294.144C93.8656 293.967 93.7706 293.75 93.7706 293.506C93.7706 293.261 93.8385 293.051 93.9742 292.888C94.11 292.725 94.273 292.617 94.4699 292.562C94.6871 292.494 94.7958 292.372 94.7958 292.189C94.7958 292.026 94.7211 291.836 94.5785 291.632C94.4359 291.429 94.2119 291.245 93.9131 291.089C93.6076 290.933 93.2342 290.852 92.7793 290.852C91.917 290.852 91.3263 291.225 91.0208 291.965C90.7153 292.705 90.5591 293.818 90.5591 295.298C90.5591 296.778 90.7085 297.891 91.014 298.631C91.3127 299.371 91.9034 299.744 92.7861 299.744C93.6687 299.744 94.2662 299.453 94.7211 298.862C95.176 298.271 95.4476 297.579 95.5426 296.785H96.0383C95.9975 297.348 95.855 297.891 95.6037 298.421C95.3525 298.95 94.9927 299.385 94.5106 299.724C94.0286 300.063 93.4514 300.24 92.7793 300.24C91.9849 300.24 91.2788 300.023 90.6677 299.582H90.6609Z" fill="white"/>
<path d="M98.4757 298.95C97.7017 298.088 97.3147 296.886 97.3147 295.352C97.3147 294.477 97.4844 293.655 97.8307 292.895C98.1702 292.135 98.6522 291.524 99.2633 291.062C99.8744 290.6 100.553 290.376 101.307 290.376C102.142 290.376 102.828 290.6 103.364 291.055C103.901 291.51 104.288 292.08 104.525 292.773C104.763 293.465 104.885 294.178 104.885 294.904C104.885 295.054 104.838 295.155 104.742 295.203C104.647 295.25 104.484 295.278 104.247 295.278H99.1207C99.1207 296.649 99.3176 297.742 99.7046 298.55C100.098 299.357 100.737 299.765 101.626 299.765C102.257 299.765 102.848 299.527 103.405 299.045C103.962 298.563 104.315 297.817 104.464 296.805H104.96C104.878 297.803 104.532 298.631 103.921 299.283C103.31 299.935 102.515 300.26 101.545 300.26C100.268 300.26 99.2429 299.826 98.4689 298.964L98.4757 298.95ZM103.113 294.775C103.113 293.676 102.97 292.752 102.678 291.999C102.393 291.245 101.918 290.865 101.259 290.865C100.56 290.865 100.031 291.245 99.6639 292.006C99.2972 292.766 99.1207 293.689 99.1207 294.775H103.113Z" fill="white"/>
<path d="M112.51 299.71C111.98 299.351 111.715 298.726 111.715 297.816C111.715 297.117 111.892 296.567 112.252 296.167C112.612 295.766 113.026 295.488 113.494 295.312C113.969 295.142 114.54 294.993 115.212 294.87L117.106 294.517V292.766C117.106 291.49 116.468 290.852 115.192 290.852C114.723 290.852 114.302 290.974 113.915 291.211C113.528 291.449 113.338 291.72 113.338 292.026C113.338 292.162 113.358 292.264 113.399 292.331C113.426 292.372 113.474 292.413 113.535 292.454C113.596 292.494 113.657 292.522 113.711 292.535C113.956 292.603 114.146 292.698 114.275 292.827C114.404 292.949 114.472 293.119 114.472 293.343C114.472 293.628 114.384 293.838 114.214 293.961C114.044 294.083 113.827 294.144 113.569 294.144C113.263 294.144 112.992 294.029 112.747 293.791C112.503 293.56 112.374 293.221 112.374 292.786C112.374 292.277 112.517 291.843 112.795 291.469C113.073 291.096 113.44 290.824 113.888 290.634C114.336 290.451 114.791 290.356 115.253 290.356C116.156 290.356 116.943 290.594 117.595 291.069C118.254 291.544 118.58 292.277 118.58 293.282V298.339C118.58 299.025 118.79 299.364 119.218 299.364C119.564 299.364 119.808 299.167 119.958 298.767C120.107 298.366 120.182 297.884 120.182 297.307H120.555C120.555 298.129 120.433 298.821 120.195 299.385C119.958 299.948 119.53 300.226 118.912 300.226C118.294 300.226 117.88 300.05 117.588 299.704C117.29 299.351 117.133 298.869 117.106 298.251L117.004 298.21C116.801 298.692 116.468 299.147 116.006 299.582C115.545 300.016 115.008 300.226 114.39 300.226C113.664 300.226 113.033 300.05 112.51 299.69V299.71ZM116.169 298.774C116.522 298.285 116.828 297.667 117.106 296.914V294.959L115.314 295.352C114.655 295.488 114.18 295.76 113.881 296.167C113.582 296.574 113.44 297.144 113.44 297.884C113.44 298.516 113.569 298.943 113.834 299.167C114.092 299.391 114.39 299.507 114.716 299.507C115.334 299.507 115.816 299.262 116.169 298.774Z" fill="white"/>
<path d="M121.323 299.5H122.185C122.348 299.5 122.463 299.466 122.531 299.398C122.599 299.33 122.633 299.215 122.633 299.045V291.558C122.633 291.395 122.599 291.279 122.531 291.211C122.463 291.143 122.348 291.109 122.185 291.109H121.323V290.614H124.12V292.304L124.201 292.325C124.514 291.666 124.907 291.177 125.376 290.852C125.844 290.532 126.354 290.37 126.917 290.37C127.915 290.37 128.628 290.682 129.049 291.293C129.47 291.911 129.674 292.65 129.674 293.513V299.045C129.674 299.208 129.708 299.33 129.775 299.398C129.843 299.466 129.959 299.5 130.122 299.5H130.984V299.996H126.87V299.5H127.732C127.895 299.5 128.01 299.466 128.085 299.398C128.153 299.33 128.187 299.215 128.187 299.045V293.119C128.187 292.515 128.065 291.999 127.827 291.578C127.589 291.15 127.182 290.94 126.605 290.94C126.123 290.94 125.695 291.11 125.322 291.442C124.941 291.782 124.649 292.236 124.439 292.82C124.228 293.404 124.12 294.049 124.12 294.762V299.038C124.12 299.201 124.154 299.324 124.222 299.391C124.29 299.459 124.405 299.493 124.575 299.493H125.437V299.989H121.323V299.493V299.5Z" fill="white"/>
<path d="M134.066 299.595C133.51 299.161 133.068 298.57 132.742 297.817C132.417 297.063 132.247 296.228 132.247 295.305C132.247 294.382 132.41 293.547 132.742 292.793C133.075 292.04 133.516 291.449 134.066 291.014C134.623 290.58 135.221 290.37 135.866 290.37C136.402 290.37 136.877 290.546 137.305 290.892C137.733 291.238 138.045 291.666 138.249 292.155L138.33 292.135V286.29C138.33 286.127 138.296 286.011 138.228 285.937C138.161 285.869 138.045 285.835 137.875 285.835H136.395V285.339H139.81V299.038C139.81 299.201 139.844 299.324 139.912 299.391C139.98 299.459 140.096 299.493 140.265 299.493H141.338V299.989H138.337V298.468L138.256 298.448C137.998 298.998 137.665 299.432 137.258 299.751C136.85 300.07 136.388 300.233 135.872 300.233C135.227 300.233 134.63 300.016 134.073 299.588L134.066 299.595ZM137.224 299.215C137.563 298.916 137.835 298.495 138.038 297.973C138.242 297.45 138.337 296.873 138.337 296.255V294.361C138.337 293.743 138.235 293.173 138.038 292.644C137.841 292.114 137.57 291.7 137.224 291.401C136.877 291.103 136.504 290.947 136.09 290.947C135.418 290.947 134.908 291.327 134.569 292.08C134.223 292.834 134.053 293.913 134.053 295.312C134.053 296.71 134.223 297.789 134.569 298.543C134.908 299.296 135.418 299.677 136.09 299.677C136.504 299.677 136.877 299.527 137.224 299.222V299.215Z" fill="white"/>
<path d="M148.718 299.71C148.189 299.351 147.924 298.726 147.924 297.816C147.924 297.117 148.101 296.567 148.46 296.167C148.814 295.766 149.234 295.488 149.703 295.312C150.178 295.142 150.749 294.993 151.421 294.87L153.315 294.517V292.766C153.315 291.49 152.677 290.852 151.4 290.852C150.932 290.852 150.511 290.974 150.124 291.211C149.737 291.449 149.547 291.72 149.547 292.026C149.547 292.162 149.567 292.264 149.608 292.331C149.635 292.372 149.683 292.413 149.744 292.454C149.805 292.494 149.866 292.522 149.92 292.535C150.165 292.603 150.355 292.698 150.484 292.827C150.613 292.949 150.681 293.119 150.681 293.343C150.681 293.628 150.592 293.838 150.423 293.961C150.253 294.083 150.036 294.144 149.778 294.144C149.479 294.144 149.201 294.029 148.956 293.791C148.712 293.56 148.583 293.221 148.583 292.786C148.583 292.277 148.725 291.843 149.004 291.469C149.282 291.096 149.649 290.824 150.097 290.634C150.545 290.444 151 290.356 151.468 290.356C152.371 290.356 153.152 290.594 153.811 291.069C154.469 291.544 154.795 292.277 154.795 293.282V298.339C154.795 299.025 155.006 299.364 155.433 299.364C155.773 299.364 156.024 299.167 156.173 298.767C156.323 298.366 156.397 297.884 156.397 297.307H156.771C156.771 298.129 156.649 298.821 156.411 299.385C156.173 299.948 155.746 300.226 155.128 300.226C154.51 300.226 154.096 300.05 153.804 299.704C153.512 299.351 153.349 298.869 153.322 298.251L153.22 298.21C153.016 298.692 152.684 299.147 152.222 299.582C151.76 300.016 151.224 300.226 150.606 300.226C149.879 300.226 149.255 300.05 148.725 299.69L148.718 299.71ZM152.378 298.774C152.724 298.285 153.037 297.667 153.315 296.914V294.959L151.523 295.352C150.864 295.488 150.389 295.76 150.09 296.167C149.791 296.574 149.649 297.144 149.649 297.884C149.649 298.516 149.778 298.943 150.042 299.167C150.3 299.391 150.599 299.507 150.925 299.507C151.543 299.507 152.025 299.262 152.378 298.774Z" fill="white"/>
<path d="M163.357 296.167H163.73L164.49 297.789C165.23 299.093 166.188 299.744 167.369 299.744C168.001 299.744 168.469 299.588 168.781 299.283C169.094 298.977 169.243 298.55 169.243 298.02C169.243 297.708 169.121 297.423 168.883 297.165C168.646 296.907 168.327 296.71 167.926 296.561L165.584 295.617C164.843 295.318 164.26 294.952 163.832 294.524C163.404 294.096 163.194 293.56 163.194 292.902C163.194 292.067 163.452 291.435 163.974 291.008C164.497 290.58 165.156 290.37 165.95 290.37C166.351 290.37 166.724 290.437 167.07 290.566C167.417 290.695 167.709 290.852 167.946 291.028C168.245 291.245 168.476 291.354 168.625 291.354C168.802 291.354 168.91 291.232 168.958 290.981L168.999 290.566H169.372V293.696H168.999L168.714 292.976C168.394 292.196 167.98 291.646 167.471 291.334C166.955 291.021 166.446 290.858 165.937 290.858C165.427 290.858 165.013 290.987 164.681 291.238C164.355 291.496 164.185 291.843 164.185 292.297C164.185 292.698 164.348 293.024 164.667 293.275C164.986 293.526 165.434 293.771 165.991 294.008L168.211 294.931C168.87 295.203 169.365 295.536 169.691 295.929C170.017 296.323 170.187 296.866 170.187 297.565C170.187 298.482 169.929 299.161 169.406 299.588C168.883 300.023 168.197 300.233 167.349 300.233C166.84 300.233 166.432 300.165 166.113 300.03C165.794 299.894 165.488 299.71 165.19 299.473C165.068 299.378 164.945 299.296 164.816 299.229C164.694 299.161 164.585 299.127 164.49 299.127C164.165 299.127 163.934 299.357 163.811 299.826L163.73 300.24H163.357V296.167Z" fill="white"/>
<path d="M171.232 299.5H172.305C172.468 299.5 172.584 299.466 172.651 299.398C172.719 299.33 172.753 299.215 172.753 299.045V286.29C172.753 286.127 172.719 286.011 172.651 285.937C172.584 285.869 172.468 285.835 172.305 285.835H171.232V285.339H174.233V299.038C174.233 299.201 174.267 299.324 174.335 299.391C174.403 299.459 174.519 299.493 174.688 299.493H175.761V299.989H171.232V299.493V299.5Z" fill="white"/>
<path d="M176.603 299.5H177.465C177.628 299.5 177.744 299.466 177.812 299.398C177.879 299.33 177.913 299.215 177.913 299.045V291.558C177.913 291.395 177.879 291.279 177.812 291.211C177.744 291.143 177.628 291.109 177.465 291.109H176.603V290.614H179.4V299.045C179.4 299.208 179.434 299.33 179.502 299.398C179.57 299.466 179.685 299.5 179.855 299.5H180.718V299.996H176.603V299.5ZM177.778 287.756C177.574 287.552 177.472 287.294 177.472 286.996C177.472 286.697 177.574 286.425 177.778 286.222C177.981 286.025 178.239 285.923 178.538 285.923C178.837 285.923 179.108 286.025 179.312 286.222C179.516 286.419 179.611 286.677 179.611 286.996C179.611 287.315 179.509 287.552 179.312 287.756C179.115 287.96 178.857 288.068 178.538 288.068C178.219 288.068 177.981 287.966 177.778 287.756Z" fill="white"/>
<path d="M183.895 299.582C183.284 299.14 182.809 298.55 182.476 297.789C182.137 297.036 181.974 296.208 181.974 295.298C181.974 294.388 182.143 293.56 182.49 292.807C182.829 292.053 183.311 291.456 183.922 291.014C184.533 290.573 185.226 290.356 186.013 290.356C186.645 290.356 187.195 290.492 187.657 290.757C188.125 291.021 188.478 291.367 188.729 291.788C188.98 292.209 189.103 292.63 189.103 293.051C189.103 293.472 188.994 293.811 188.77 294.049C188.553 294.287 188.281 294.409 187.969 294.409C187.697 294.409 187.466 294.32 187.283 294.144C187.1 293.967 187.005 293.75 187.005 293.506C187.005 293.261 187.073 293.051 187.208 292.888C187.344 292.725 187.507 292.617 187.704 292.562C187.921 292.494 188.037 292.372 188.037 292.189C188.037 292.026 187.962 291.836 187.819 291.632C187.677 291.429 187.453 291.245 187.154 291.089C186.855 290.933 186.475 290.852 186.02 290.852C185.158 290.852 184.567 291.225 184.262 291.965C183.956 292.705 183.8 293.818 183.8 295.298C183.8 296.778 183.949 297.891 184.255 298.631C184.554 299.371 185.144 299.744 186.027 299.744C186.91 299.744 187.507 299.453 187.962 298.862C188.417 298.271 188.688 297.579 188.784 296.785H189.279C189.238 297.348 189.096 297.891 188.845 298.421C188.6 298.95 188.234 299.385 187.752 299.724C187.269 300.063 186.692 300.24 186.02 300.24C185.226 300.24 184.52 300.023 183.909 299.582H183.895Z" fill="white"/>
<path d="M191.717 298.95C190.943 298.088 190.556 296.886 190.556 295.352C190.556 294.477 190.725 293.655 191.072 292.895C191.411 292.135 191.893 291.524 192.504 291.062C193.115 290.6 193.794 290.376 194.548 290.376C195.383 290.376 196.069 290.6 196.605 291.055C197.142 291.51 197.529 292.08 197.766 292.773C198.004 293.465 198.126 294.178 198.126 294.904C198.126 295.054 198.078 295.155 197.983 295.203C197.888 295.25 197.725 295.278 197.488 295.278H192.368C192.368 296.649 192.565 297.742 192.952 298.55C193.339 299.357 193.984 299.765 194.874 299.765C195.505 299.765 196.096 299.527 196.653 299.045C197.209 298.563 197.562 297.817 197.712 296.805H198.207C198.126 297.803 197.78 298.631 197.169 299.283C196.558 299.935 195.763 300.26 194.792 300.26C193.516 300.26 192.491 299.826 191.717 298.964V298.95ZM196.354 294.775C196.354 293.676 196.211 292.752 195.919 291.999C195.634 291.245 195.159 290.865 194.5 290.865C193.801 290.865 193.271 291.245 192.905 292.006C192.538 292.766 192.362 293.689 192.362 294.775H196.354Z" fill="white"/>
<path d="M200.944 292.671C200.903 292.08 200.788 291.272 200.591 290.241C200.36 288.951 200.244 287.939 200.244 287.193C200.244 286.738 200.36 286.378 200.591 286.113C200.822 285.848 201.134 285.713 201.514 285.713C201.894 285.713 202.207 285.848 202.437 286.113C202.668 286.378 202.79 286.738 202.79 287.193C202.79 287.933 202.675 288.951 202.437 290.241C202.247 291.266 202.132 292.08 202.084 292.671L201.752 296.785H201.256L200.923 292.671H200.944ZM200.604 299.88C200.367 299.643 200.244 299.337 200.244 298.964C200.244 298.59 200.367 298.292 200.604 298.047C200.842 297.81 201.147 297.688 201.521 297.688C201.894 297.688 202.193 297.81 202.437 298.047C202.682 298.285 202.797 298.59 202.797 298.964C202.797 299.337 202.675 299.643 202.437 299.88C202.2 300.118 201.894 300.24 201.521 300.24C201.147 300.24 200.842 300.118 200.604 299.88Z" fill="white"/>
<path d="M60.5764 269.692V240.04H64.2903V269.237L80.3612 268.782V271.952L63.3398 272.407C61.5745 272.455 60.5764 271.409 60.5764 269.692Z" fill="white"/>
<path d="M90.6406 249.007C96.982 249.007 101.144 253.033 101.144 259.964V261.41H83.3486C83.5727 265.666 85.6095 269.332 91.1838 269.332C94.8976 269.332 97.3894 267.52 98.2041 264.085H101.918C101.056 267.567 98.3399 272.414 91.1905 272.414C83.1313 272.414 79.7366 266.888 79.7366 260.419C79.7366 253.176 84.2652 249.014 90.6474 249.014M97.532 258.613C97.532 254.988 95.1353 252.137 90.6474 252.137C86.1595 252.137 83.3554 254.988 83.3554 258.613H97.5252H97.532Z" fill="white"/>
<path d="M138.086 258.24V272.407H134.372V259.102C134.372 254.757 133.422 252.626 129.755 252.626C125.274 252.626 122.599 256.611 122.599 262.496V272.407H118.885V259.102C118.885 254.757 117.935 252.626 114.268 252.626C109.787 252.626 107.112 256.611 107.112 262.496V272.407H103.398V249.91H107.112V253.759L106.521 256.292H107.56C108.463 252.218 110.819 249.456 115.619 249.456C119.693 249.456 121.866 252.259 122.368 256.292H123.047C123.95 252.218 126.306 249.456 131.106 249.456C135.907 249.456 138.079 253.21 138.079 258.24" fill="white"/>
<path d="M175.496 258.24V272.407H171.783V259.102C171.783 254.757 170.832 252.626 167.166 252.626C162.685 252.626 160.009 256.611 160.009 262.496V272.407H156.296V259.102C156.296 254.757 155.345 252.626 151.679 252.626C147.198 252.626 144.522 256.611 144.522 262.496V272.407H140.809V249.91H144.522V253.759L143.932 256.292H144.971C145.874 252.218 148.23 249.456 153.03 249.456C157.104 249.456 159.276 252.259 159.779 256.292H160.458C161.361 252.218 163.717 249.456 168.517 249.456C173.317 249.456 175.49 253.21 175.49 258.24" fill="white"/>
<path d="M188.98 249.007C196.137 249.007 200.794 254.167 200.794 260.684C200.794 267.201 196.13 272.407 188.98 272.407C181.831 272.407 177.072 267.248 177.072 260.684C177.072 254.119 181.777 249.007 188.98 249.007ZM188.98 269.244C194.276 269.244 197.128 265.395 197.128 260.69C197.128 255.986 194.276 252.178 188.98 252.178C183.685 252.178 180.785 256.027 180.785 260.69C180.785 265.354 183.637 269.244 188.98 269.244Z" fill="white"/>
<path d="M206.049 262.449V272.407H202.335V249.91H206.049V253.8L205.459 256.38H206.497C207.4 252.307 210.252 249.456 215.147 249.456C220.043 249.456 223.526 252.395 223.526 258.647V272.407H219.859V259.143C219.859 254.438 218.006 252.626 214.156 252.626C209.403 252.626 206.049 256.38 206.049 262.449Z" fill="white"/>
</g>
<defs>
<clipPath id="clip0_518_2049">
<rect width="263" height="408" fill="white"/>
</clipPath>
</defs>
</svg>
